<svg version="1.1" xmlns="http://www.w3.org/2000/svg" viewBox="0 0 1139.3329247413867 825.1211130559059" width="1139.3329247413867" height="825.1211130559059">
    <!-- svg-source:excalidraw -->

    <defs>
        <style class="style-fonts">
            @font-face {
            font-family: "Virgil";
            src: url("https://excalidraw.com/Virgil.woff2");
            }
            @font-face {
            font-family: "Cascadia";
            src: url("https://excalidraw.com/Cascadia.woff2");
            }
        </style>
    </defs>
    <rect x="0" y="0" width="1139.3329247413867" height="825.1211130559059" fill="#ffffff"></rect><g stroke-linecap="round" transform="translate(590.6114042113259 10) rotate(0 76.55829191227758 36.848144488846174)"><path d="M18.42 0 M18.42 0 C55.26 0, 92.1 0, 134.69 0 M18.42 0 C60.6 0, 102.77 0, 134.69 0 M134.69 0 C146.98 0, 153.12 6.14, 153.12 18.42 M134.69 0 C146.98 0, 153.12 6.14, 153.12 18.42 M153.12 18.42 C153.12 27.33, 153.12 36.24, 153.12 55.27 M153.12 18.42 C153.12 27.11, 153.12 35.8, 153.12 55.27 M153.12 55.27 C153.12 67.55, 146.98 73.7, 134.69 73.7 M153.12 55.27 C153.12 67.55, 146.98 73.7, 134.69 73.7 M134.69 73.7 C94.83 73.7, 54.97 73.7, 18.42 73.7 M134.69 73.7 C111.25 73.7, 87.8 73.7, 18.42 73.7 M18.42 73.7 C6.14 73.7, 0 67.55, 0 55.27 M18.42 73.7 C6.14 73.7, 0 67.55, 0 55.27 M0 55.27 C0 45.08, 0 34.89, 0 18.42 M0 55.27 C0 47.06, 0 38.85, 0 18.42 M0 18.42 C0 6.14, 6.14 0, 18.42 0 M0 18.42 C0 6.14, 6.14 0, 18.42 0" stroke="#000000" stroke-width="1" fill="none"></path></g><g transform="translate(640.669696123603 27.84814448884572) rotate(0 26.5 19)"><text x="26.5" y="14" font-family="Helvetica, Segoe UI Emoji" font-size="16px" fill="#000000" text-anchor="middle" style="white-space: pre;" direction="ltr">NestJS</text><text x="26.5" y="33" font-family="Helvetica, Segoe UI Emoji" font-size="16px" fill="#000000" text-anchor="middle" style="white-space: pre;" direction="ltr">server</text></g><g stroke-linecap="round" transform="translate(973.3918774100794 11.720047555934798) rotate(0 76.55829191227758 36.848144488846174)"><path d="M18.42 0 M18.42 0 C49.53 0, 80.64 0, 134.69 0 M18.42 0 C47.35 0, 76.27 0, 134.69 0 M134.69 0 C146.98 0, 153.12 6.14, 153.12 18.42 M134.69 0 C146.98 0, 153.12 6.14, 153.12 18.42 M153.12 18.42 C153.12 26.39, 153.12 34.36, 153.12 55.27 M153.12 18.42 C153.12 28.75, 153.12 39.08, 153.12 55.27 M153.12 55.27 C153.12 67.55, 146.98 73.7, 134.69 73.7 M153.12 55.27 C153.12 67.55, 146.98 73.7, 134.69 73.7 M134.69 73.7 C95.44 73.7, 56.18 73.7, 18.42 73.7 M134.69 73.7 C109.57 73.7, 84.45 73.7, 18.42 73.7 M18.42 73.7 C6.14 73.7, 0 67.55, 0 55.27 M18.42 73.7 C6.14 73.7, 0 67.55, 0 55.27 M0 55.27 C0 41.27, 0 27.27, 0 18.42 M0 55.27 C0 46.05, 0 36.82, 0 18.42 M0 18.42 C0 6.14, 6.14 0, 18.42 0 M0 18.42 C0 6.14, 6.14 0, 18.42 0" stroke="#000000" stroke-width="1" fill="none"></path></g><g transform="translate(1005.9501693223565 29.568192044782336) rotate(0 44 19)"><text x="44" y="14" font-family="Helvetica, Segoe UI Emoji" font-size="16px" fill="#000000" text-anchor="middle" style="white-space: pre;" direction="ltr">PostgreSQL</text><text x="44" y="33" font-family="Helvetica, Segoe UI Emoji" font-size="16px" fill="#000000" text-anchor="middle" style="white-space: pre;" direction="ltr">database</text></g><g mask="url(#mask-WRq06kV_h-tfPAIQBYDOl)" stroke-linecap="round"><g transform="translate(750.2388365979168 47.156625387426175) rotate(0 108.04517533818398 1.188732311830563)"><path d="M0 0 C36.02 0.4, 180.08 1.98, 216.09 2.38 M0 0 C36.02 0.4, 180.08 1.98, 216.09 2.38" stroke="#000000" stroke-width="1" fill="none"></path></g><g transform="translate(750.2388365979168 47.156625387426175) rotate(0 108.04517533818398 1.188732311830563)"><path d="M216.09 2.38 L202.43 8.57 L202.57 -4.11 L216.09 2.38" stroke="none" stroke-width="0" fill="#000000" fill-rule="evenodd"></path><path d="M216.09 2.38 C211.13 4.62, 206.18 6.87, 202.43 8.57 M216.09 2.38 C211.39 4.5, 206.7 6.63, 202.43 8.57 M202.43 8.57 C202.46 5.58, 202.49 2.59, 202.57 -4.11 M202.43 8.57 C202.47 4.62, 202.51 0.68, 202.57 -4.11 M202.57 -4.11 C205.29 -2.8, 208.02 -1.49, 216.09 2.38 M202.57 -4.11 C206.88 -2.04, 211.2 0.03, 216.09 2.38 M216.09 2.38 C216.09 2.38, 216.09 2.38, 216.09 2.38 M216.09 2.38 C216.09 2.38, 216.09 2.38, 216.09 2.38" stroke="#000000" stroke-width="1" fill="none"></path></g></g><mask id="mask-WRq06kV_h-tfPAIQBYDOl"><rect x="0" y="0" fill="#fff" width="1066.329187274285" height="149.5340900110873"></rect><rect x="799.2840119361008" y="38.845357699256965" fill="#000" width="118" height="19" opacity="1"></rect></mask><g transform="translate(799.2840119361008 38.845357699256965) rotate(0 59 9.499999999999773)"><text x="59" y="14" font-family="Helvetica, Segoe UI Emoji" font-size="16px" fill="#000000" text-anchor="middle" style="white-space: pre;" direction="ltr">CRUD operation</text></g><g stroke-linecap="round" transform="translate(588.2819365457544 167.64240586195774) rotate(0 76.55829191227758 36.848144488846174)"><path d="M18.42 0 M18.42 0 C57.47 0, 96.51 0, 134.69 0 M18.42 0 C58.39 0, 98.36 0, 134.69 0 M134.69 0 C146.98 0, 153.12 6.14, 153.12 18.42 M134.69 0 C146.98 0, 153.12 6.14, 153.12 18.42 M153.12 18.42 C153.12 28.35, 153.12 38.27, 153.12 55.27 M153.12 18.42 C153.12 31.01, 153.12 43.6, 153.12 55.27 M153.12 55.27 C153.12 67.55, 146.98 73.7, 134.69 73.7 M153.12 55.27 C153.12 67.55, 146.98 73.7, 134.69 73.7 M134.69 73.7 C106.02 73.7, 77.34 73.7, 18.42 73.7 M134.69 73.7 C106.63 73.7, 78.57 73.7, 18.42 73.7 M18.42 73.7 C6.14 73.7, 0 67.55, 0 55.27 M18.42 73.7 C6.14 73.7, 0 67.55, 0 55.27 M0 55.27 C0 41.3, 0 27.32, 0 18.42 M0 55.27 C0 47.6, 0 39.93, 0 18.42 M0 18.42 C0 6.14, 6.14 0, 18.42 0 M0 18.42 C0 6.14, 6.14 0, 18.42 0" stroke="#000000" stroke-width="1" fill="none"></path></g><g transform="translate(628.3402284580316 185.49055035080528) rotate(0 36.5 19)"><text x="36.5" y="14" font-family="Helvetica, Segoe UI Emoji" font-size="16px" fill="#000000" text-anchor="middle" style="white-space: pre;" direction="ltr">RabbitMQ</text><text x="36.5" y="33" font-family="Helvetica, Segoe UI Emoji" font-size="16px" fill="#000000" text-anchor="middle" style="white-space: pre;" direction="ltr">AMQP</text></g><g mask="url(#mask-eiKQi7cRqDywHkJN1eU-0)" stroke-linecap="round"><g transform="translate(662.2167946862883 89.05835584890701) rotate(0 0 36.72844231947056)"><path d="M0 0 C0 12.24, 0 61.21, 0 73.46 M0 0 C0 12.24, 0 61.21, 0 73.46" stroke="#000000" stroke-width="1" fill="none"></path></g><g transform="translate(662.2167946862883 89.05835584890701) rotate(0 0 36.72844231947056)"><path d="M0 73.46 L-6.34 59.86 L6.34 59.86 L0 73.46" stroke="none" stroke-width="0" fill="#000000" fill-rule="evenodd"></path><path d="M0 73.46 C-2.37 68.38, -4.73 63.31, -6.34 59.86 M0 73.46 C-1.53 70.17, -3.07 66.88, -6.34 59.86 M-6.34 59.86 C-1.79 59.86, 2.77 59.86, 6.34 59.86 M-6.34 59.86 C-1.99 59.86, 2.35 59.86, 6.34 59.86 M6.34 59.86 C3.97 64.95, 1.6 70.03, 0 73.46 M6.34 59.86 C4.59 63.62, 2.83 67.38, 0 73.46 M0 73.46 C0 73.46, 0 73.46, 0 73.46 M0 73.46 C0 73.46, 0 73.46, 0 73.46" stroke="#000000" stroke-width="1" fill="none"></path></g></g><mask id="mask-eiKQi7cRqDywHkJN1eU-0"><rect x="0" y="0" fill="#fff" width="762.2167946862883" height="262.51524048784813"></rect><rect x="609.7167946862883" y="116.28679816837757" fill="#000" width="105" height="19" opacity="1"></rect></mask><g transform="translate(609.7167946862883 116.28679816837757) rotate(0 52.5 9.5)"><text x="52.5" y="14" font-family="Helvetica, Segoe UI Emoji" font-size="16px" fill="#000000" text-anchor="middle" style="white-space: pre;" direction="ltr">send message</text></g><g stroke-linecap="round" transform="translate(588.8873869755862 318.99577544354906) rotate(0 76.55829191227758 36.848144488846174)"><path d="M18.42 0 M18.42 0 C55.24 0, 92.06 0, 134.69 0 M18.42 0 C51.34 0, 84.26 0, 134.69 0 M134.69 0 C146.98 0, 153.12 6.14, 153.12 18.42 M134.69 0 C146.98 0, 153.12 6.14, 153.12 18.42 M153.12 18.42 C153.12 26.24, 153.12 34.05, 153.12 55.27 M153.12 18.42 C153.12 26.41, 153.12 34.39, 153.12 55.27 M153.12 55.27 C153.12 67.55, 146.98 73.7, 134.69 73.7 M153.12 55.27 C153.12 67.55, 146.98 73.7, 134.69 73.7 M134.69 73.7 C104.55 73.7, 74.4 73.7, 18.42 73.7 M134.69 73.7 C97.63 73.7, 60.56 73.7, 18.42 73.7 M18.42 73.7 C6.14 73.7, 0 67.55, 0 55.27 M18.42 73.7 C6.14 73.7, 0 67.55, 0 55.27 M0 55.27 C0 45.29, 0 35.3, 0 18.42 M0 55.27 C0 40.97, 0 26.67, 0 18.42 M0 18.42 C0 6.14, 6.14 0, 18.42 0 M0 18.42 C0 6.14, 6.14 0, 18.42 0" stroke="#000000" stroke-width="1" fill="none"></path></g><g transform="translate(634.9456788878642 336.8439199323966) rotate(0 30.5 19)"><text x="30.5" y="14" font-family="Helvetica, Segoe UI Emoji" font-size="16px" fill="#000000" text-anchor="middle" style="white-space: pre;" direction="ltr">Quarkus</text><text x="30.5" y="33" font-family="Helvetica, Segoe UI Emoji" font-size="16px" fill="#000000" text-anchor="middle" style="white-space: pre;" direction="ltr">server</text></g><g mask="url(#mask-Fw7-m9M6bhMVoke7oAV60)" stroke-linecap="round"><g transform="translate(661.1476774070261 312.05238195162747) rotate(0 -0.08925505212346252 -34.306794564749225)"><path d="M0 0 C-0.03 -11.44, -0.15 -57.18, -0.18 -68.61 M0 0 C-0.03 -11.44, -0.15 -57.18, -0.18 -68.61" stroke="#000000" stroke-width="1" fill="none"></path></g><g transform="translate(661.1476774070261 312.05238195162747) rotate(0 -0.08925505212346252 -34.306794564749225)"><path d="M-0.18 -68.61 L6.2 -55.04 L-6.48 -55 L-0.18 -68.61" stroke="none" stroke-width="0" fill="#000000" fill-rule="evenodd"></path><path d="M-0.18 -68.61 C1.68 -64.66, 3.54 -60.7, 6.2 -55.04 M-0.18 -68.61 C1.7 -64.61, 3.58 -60.6, 6.2 -55.04 M6.2 -55.04 C2.04 -55.02, -2.13 -55.01, -6.48 -55 M6.2 -55.04 C2.92 -55.03, -0.37 -55.02, -6.48 -55 M-6.48 -55 C-4.09 -60.18, -1.69 -65.35, -0.18 -68.61 M-6.48 -55 C-4.72 -58.8, -2.97 -62.59, -0.18 -68.61 M-0.18 -68.61 C-0.18 -68.61, -0.18 -68.61, -0.18 -68.61 M-0.18 -68.61 C-0.18 -68.61, -0.18 -68.61, -0.18 -68.61" stroke="#000000" stroke-width="1" fill="none"></path></g></g><mask id="mask-Fw7-m9M6bhMVoke7oAV60"><rect x="0" y="0" fill="#fff" width="761.326187511273" height="480.6659710811259"></rect><rect x="607.0584223549026" y="268.24558738687847" fill="#000" width="108" height="19" opacity="1"></rect></mask><g transform="translate(607.0584223549026 268.24558738687847) rotate(0 54 9.499999999999773)"><text x="54" y="14" font-family="Helvetica, Segoe UI Emoji" font-size="16px" fill="#000000" text-anchor="middle" style="white-space: pre;" direction="ltr">listen message</text></g><g stroke-linecap="round" transform="translate(265.5898697471421 323.32922470371705) rotate(0 76.55829191227758 33.5)"><path d="M16.75 0 M16.75 0 C52.42 0, 88.09 0, 136.37 0 M16.75 0 C61.48 0, 106.21 0, 136.37 0 M136.37 0 C147.53 0, 153.12 5.58, 153.12 16.75 M136.37 0 C147.53 0, 153.12 5.58, 153.12 16.75 M153.12 16.75 C153.12 24.75, 153.12 32.75, 153.12 50.25 M153.12 16.75 C153.12 24.99, 153.12 33.23, 153.12 50.25 M153.12 50.25 C153.12 61.42, 147.53 67, 136.37 67 M153.12 50.25 C153.12 61.42, 147.53 67, 136.37 67 M136.37 67 C93.43 67, 50.49 67, 16.75 67 M136.37 67 C97.18 67, 57.99 67, 16.75 67 M16.75 67 C5.58 67, 0 61.42, 0 50.25 M16.75 67 C5.58 67, 0 61.42, 0 50.25 M0 50.25 C0 40.68, 0 31.12, 0 16.75 M0 50.25 C0 41.14, 0 32.04, 0 16.75 M0 16.75 C0 5.58, 5.58 0, 16.75 0 M0 16.75 C0 5.58, 5.58 0, 16.75 0" stroke="#000000" stroke-width="1" fill="none"></path></g><g transform="translate(295.1481616594201 337.82922470371705) rotate(0 47 19)"><text x="47" y="14" font-family="Helvetica, Segoe UI Emoji" font-size="16px" fill="#000000" text-anchor="middle" style="white-space: pre;" direction="ltr">MailDev</text><text x="47" y="33" font-family="Helvetica, Segoe UI Emoji" font-size="16px" fill="#000000" text-anchor="middle" style="white-space: pre;" direction="ltr">SMTP server</text></g><g mask="url(#mask-IxJo8UJMgkRpOXzR2rv2i)" stroke-linecap="round"><g transform="translate(582.770742152311 355.2657358837696) rotate(0 -77.56221558415928 0.4226127523311334)"><path d="M0 0 C-25.85 0.14, -129.27 0.7, -155.12 0.85 M0 0 C-25.85 0.14, -129.27 0.7, -155.12 0.85" stroke="#000000" stroke-width="1" fill="none"></path></g><g transform="translate(582.770742152311 355.2657358837696) rotate(0 -77.56221558415928 0.4226127523311334)"><path d="M-155.12 0.85 L-141.56 -5.57 L-141.5 7.11 L-155.12 0.85" stroke="none" stroke-width="0" fill="#000000" fill-rule="evenodd"></path><path d="M-155.12 0.85 C-151 -1.11, -146.87 -3.06, -141.56 -5.57 M-155.12 0.85 C-151.32 -0.95, -147.52 -2.75, -141.56 -5.57 M-141.56 -5.57 C-141.54 -1.14, -141.52 3.28, -141.5 7.11 M-141.56 -5.57 C-141.55 -2.83, -141.53 -0.09, -141.5 7.11 M-141.5 7.11 C-144.62 5.67, -147.75 4.24, -155.12 0.85 M-141.5 7.11 C-144.91 5.54, -148.32 3.97, -155.12 0.85 M-155.12 0.85 C-155.12 0.85, -155.12 0.85, -155.12 0.85 M-155.12 0.85 C-155.12 0.85, -155.12 0.85, -155.12 0.85" stroke="#000000" stroke-width="1" fill="none"></path></g></g><mask id="mask-IxJo8UJMgkRpOXzR2rv2i"><rect x="0" y="0" fill="#fff" width="837.8951733206293" height="456.11096138843186"></rect><rect x="470.7085265681517" y="346.1883486361007" fill="#000" width="69" height="19" opacity="1"></rect></mask><g transform="translate(470.7085265681517 346.1883486361007) rotate(0 34.5 9.5)"><text x="34.5" y="14" font-family="Helvetica, Segoe UI Emoji" font-size="16px" fill="#000000" text-anchor="middle" style="white-space: pre;" direction="ltr">send mail</text></g><g stroke-linecap="round" transform="translate(590.7203849393672 501.77343222666605) rotate(0 76.55829191227758 36.848144488846174)"><path d="M18.42 0 M18.42 0 C42.24 0, 66.05 0, 134.69 0 M18.42 0 C48.93 0, 79.45 0, 134.69 0 M134.69 0 C146.98 0, 153.12 6.14, 153.12 18.42 M134.69 0 C146.98 0, 153.12 6.14, 153.12 18.42 M153.12 18.42 C153.12 33.14, 153.12 47.85, 153.12 55.27 M153.12 18.42 C153.12 27.34, 153.12 36.26, 153.12 55.27 M153.12 55.27 C153.12 67.55, 146.98 73.7, 134.69 73.7 M153.12 55.27 C153.12 67.55, 146.98 73.7, 134.69 73.7 M134.69 73.7 C94.87 73.7, 55.04 73.7, 18.42 73.7 M134.69 73.7 C93.36 73.7, 52.03 73.7, 18.42 73.7 M18.42 73.7 C6.14 73.7, 0 67.55, 0 55.27 M18.42 73.7 C6.14 73.7, 0 67.55, 0 55.27 M0 55.27 C0 41.45, 0 27.62, 0 18.42 M0 55.27 C0 45.08, 0 34.89, 0 18.42 M0 18.42 C0 6.14, 6.14 0, 18.42 0 M0 18.42 C0 6.14, 6.14 0, 18.42 0" stroke="#000000" stroke-width="1" fill="none"></path></g><g transform="translate(618.2786768516444 511.6215767155122) rotate(0 49 28.5)"><text x="49" y="14" font-family="Helvetica, Segoe UI Emoji" font-size="16px" fill="#000000" text-anchor="middle" style="white-space: pre;" direction="ltr">Nginx</text><text x="49" y="33" font-family="Helvetica, Segoe UI Emoji" font-size="16px" fill="#000000" text-anchor="middle" style="white-space: pre;" direction="ltr">load-balancer</text><text x="49" y="52" font-family="Helvetica, Segoe UI Emoji" font-size="16px" fill="#000000" text-anchor="middle" style="white-space: pre;" direction="ltr">Angular</text></g><g stroke-linecap="round"><g transform="translate(744.8410249177459 199.43163661712424) rotate(0 23.152897537919443 147.5997438845593)"><path d="M0 0 C26.28 0.25, 52.57 0.5, 121.55 1.16 M0 0 C41.52 0.4, 83.05 0.79, 121.55 1.16 M121.55 1.16 C121.16 87.54, 120.77 173.92, 120.39 257 M121.55 1.16 C121.27 62.91, 120.99 124.65, 120.39 257 M120.39 257 C46.49 257, -27.41 257, -74.09 257 M120.39 257 C79.92 257, 39.44 257, -74.09 257 M-74.09 257 C-74.49 270.07, -74.88 283.14, -75.25 295.2 M-74.09 257 C-74.45 269, -74.82 281.01, -75.25 295.2" stroke="#000000" stroke-width="1" fill="none"></path></g><g transform="translate(744.8410249177459 199.43163661712424) rotate(0 23.152897537919443 147.5997438845593)"><path d="M0 0 L13.65 -6.21 L13.53 6.47 L0 0" stroke="none" stroke-width="0" fill="#000000" fill-rule="evenodd"></path><path d="M0 0 C2.95 -1.34, 5.9 -2.69, 13.65 -6.21 M0 0 C4.66 -2.12, 9.33 -4.24, 13.65 -6.21 M13.65 -6.21 C13.61 -1.93, 13.57 2.35, 13.53 6.47 M13.65 -6.21 C13.63 -3.15, 13.6 -0.09, 13.53 6.47 M13.53 6.47 C8.39 4.01, 3.25 1.55, 0 0 M13.53 6.47 C10.72 5.12, 7.9 3.78, 0 0 M0 0 C0 0, 0 0, 0 0 M0 0 C0 0, 0 0, 0 0" stroke="#000000" stroke-width="1" fill="none"></path></g></g><mask></mask><g stroke-linecap="round"><g transform="translate(733.2645761487865 85.98249167409631) rotate(0 103.0303675473524 227.47721389399248)"><path d="M0 0 C-0.43 19.48, -0.87 38.96, -1.16 52.09 M0 0 C-0.26 11.9, -0.53 23.81, -1.16 52.09 M-1.16 52.09 C50.09 51.52, 101.34 50.96, 207.22 49.78 M-1.16 52.09 C70.72 51.3, 142.6 50.5, 207.22 49.78 M207.22 49.78 C207.22 182.52, 207.22 315.26, 207.22 454.95 M207.22 49.78 C207.22 144.83, 207.22 239.88, 207.22 454.95 M207.22 454.95 C155.3 454.64, 103.38 454.33, 16.21 453.8 M207.22 454.95 C136.93 454.53, 66.65 454.1, 16.21 453.8" stroke="#000000" stroke-width="1" fill="none"></path></g><g transform="translate(733.2645761487865 85.98249167409631) rotate(0 103.0303675473524 227.47721389399248)"><path d="M0 0 L6.04 13.73 L-6.64 13.45 L0 0" stroke="none" stroke-width="0" fill="#000000" fill-rule="evenodd"></path><path d="M0 0 C2.26 5.13, 4.51 10.27, 6.04 13.73 M0 0 C1.38 3.14, 2.76 6.28, 6.04 13.73 M6.04 13.73 C2.92 13.66, -0.2 13.59, -6.64 13.45 M6.04 13.73 C1.66 13.63, -2.71 13.54, -6.64 13.45 M-6.64 13.45 C-4.46 9.04, -2.29 4.64, 0 0 M-6.64 13.45 C-5.08 10.3, -3.52 7.14, 0 0 M0 0 C0 0, 0 0, 0 0 M0 0 C0 0, 0 0, 0 0" stroke="#000000" stroke-width="1" fill="none"></path></g></g><mask></mask><g stroke-linecap="round" transform="translate(976.2163409168315 170.10820149236133) rotate(0 76.55829191227758 36.848144488846174)"><path d="M18.42 0 M18.42 0 C45.84 0, 73.27 0, 134.69 0 M18.42 0 C49.75 0, 81.07 0, 134.69 0 M134.69 0 C146.98 0, 153.12 6.14, 153.12 18.42 M134.69 0 C146.98 0, 153.12 6.14, 153.12 18.42 M153.12 18.42 C153.12 25.85, 153.12 33.28, 153.12 55.27 M153.12 18.42 C153.12 30.78, 153.12 43.13, 153.12 55.27 M153.12 55.27 C153.12 67.55, 146.98 73.7, 134.69 73.7 M153.12 55.27 C153.12 67.55, 146.98 73.7, 134.69 73.7 M134.69 73.7 C108.78 73.7, 82.88 73.7, 18.42 73.7 M134.69 73.7 C108.14 73.7, 81.59 73.7, 18.42 73.7 M18.42 73.7 C6.14 73.7, 0 67.55, 0 55.27 M18.42 73.7 C6.14 73.7, 0 67.55, 0 55.27 M0 55.27 C0 44.55, 0 33.83, 0 18.42 M0 55.27 C0 44, 0 32.74, 0 18.42 M0 18.42 C0 6.14, 6.14 0, 18.42 0 M0 18.42 C0 6.14, 6.14 0, 18.42 0" stroke="#000000" stroke-width="1" fill="none"></path></g><g transform="translate(1003.2746328291087 187.95634598120705) rotate(0 49.5 19)"><text x="49.5" y="14" font-family="Helvetica, Segoe UI Emoji" font-size="16px" fill="#000000" text-anchor="middle" style="white-space: pre;" direction="ltr">Pgadmin</text><text x="49.5" y="33" font-family="Helvetica, Segoe UI Emoji" font-size="16px" fill="#000000" text-anchor="middle" style="white-space: pre;" direction="ltr">db dashboard</text></g><g stroke-linecap="round"><g transform="translate(1052.3642998931591 164.7022903102461) rotate(0 -0.82480309384664 -38.20227210543749)"><path d="M0 0 C-0.44 -20.58, -0.89 -41.16, -1.65 -76.4 M0 0 C-0.36 -16.55, -0.71 -33.1, -1.65 -76.4" stroke="#000000" stroke-width="1" fill="none"></path></g><g transform="translate(1052.3642998931591 164.7022903102461) rotate(0 -0.82480309384664 -38.20227210543749)"><path d="M0 0 L-6.63 -13.45 L6.04 -13.73 L0 0" stroke="none" stroke-width="0" fill="#000000" fill-rule="evenodd"></path><path d="M0 0 C-1.79 -3.62, -3.57 -7.25, -6.63 -13.45 M0 0 C-1.44 -2.91, -2.87 -5.83, -6.63 -13.45 M-6.63 -13.45 C-3.51 -13.52, -0.38 -13.59, 6.04 -13.73 M-6.63 -13.45 C-2.59 -13.54, 1.45 -13.63, 6.04 -13.73 M6.04 -13.73 C3.75 -8.52, 1.46 -3.31, 0 0 M6.04 -13.73 C3.7 -8.4, 1.35 -3.07, 0 0 M0 0 C0 0, 0 0, 0 0 M0 0 C0 0, 0 0, 0 0" stroke="#000000" stroke-width="1" fill="none"></path></g><g transform="translate(1052.3642998931591 164.7022903102461) rotate(0 -0.82480309384664 -38.20227210543749)"><path d="M-1.65 -76.4 L4.98 -62.95 L-7.69 -62.68 L-1.65 -76.4" stroke="none" stroke-width="0" fill="#000000" fill-rule="evenodd"></path><path d="M-1.65 -76.4 C0.14 -72.78, 1.92 -69.16, 4.98 -62.95 M-1.65 -76.4 C-0.21 -73.49, 1.22 -70.58, 4.98 -62.95 M4.98 -62.95 C1.86 -62.88, -1.27 -62.81, -7.69 -62.68 M4.98 -62.95 C0.94 -62.86, -3.1 -62.78, -7.69 -62.68 M-7.69 -62.68 C-5.4 -67.88, -3.11 -73.09, -1.65 -76.4 M-7.69 -62.68 C-5.35 -68.01, -3 -73.33, -1.65 -76.4 M-1.65 -76.4 C-1.65 -76.4, -1.65 -76.4, -1.65 -76.4 M-1.65 -76.4 C-1.65 -76.4, -1.65 -76.4, -1.65 -76.4" stroke="#000000" stroke-width="1" fill="none"></path></g></g><mask></mask><g stroke-linecap="round"><g transform="translate(1050.459201761245 249.21031333087376) rotate(0 -192.16903190047128 193.9054947997504)"><path d="M0 0 C0 101.77, 0 203.54, 0 387.81 M0 0 C0 92.64, 0 185.27, 0 387.81 M0 387.81 C-93.01 387.25, -186.02 386.69, -384.34 385.5 M0 387.81 C-137.96 386.98, -275.92 386.15, -384.34 385.5 M-384.34 385.5 C-384.34 365.74, -384.34 345.99, -384.34 329.93 M-384.34 385.5 C-384.34 369.63, -384.34 353.76, -384.34 329.93" stroke="#000000" stroke-width="1" fill="none"></path></g><g transform="translate(1050.459201761245 249.21031333087376) rotate(0 -192.16903190047128 193.9054947997504)"><path d="M0 0 L6.34 13.59 L-6.34 13.59 L0 0" stroke="none" stroke-width="0" fill="#000000" fill-rule="evenodd"></path><path d="M0 0 C1.66 3.57, 3.33 7.13, 6.34 13.59 M0 0 C1.51 3.25, 3.03 6.49, 6.34 13.59 M6.34 13.59 C3.27 13.59, 0.2 13.59, -6.34 13.59 M6.34 13.59 C1.79 13.59, -2.76 13.59, -6.34 13.59 M-6.34 13.59 C-4.09 8.76, -1.83 3.93, 0 0 M-6.34 13.59 C-4.53 9.71, -2.72 5.83, 0 0 M0 0 C0 0, 0 0, 0 0 M0 0 C0 0, 0 0, 0 0" stroke="#000000" stroke-width="1" fill="none"></path></g></g><mask></mask><g stroke-linecap="round"><g transform="translate(339.6653180041585 392.75833989088096) rotate(0 120.97389846775786 72.93161841231631)"><path d="M0 0 C-0.42 52.37, -0.83 104.75, -1.16 145.86 M0 0 C-0.4 50.01, -0.79 100.01, -1.16 145.86 M-1.16 145.86 C90.2 145.86, 181.55 145.86, 243.11 145.86 M-1.16 145.86 C66.4 145.86, 133.96 145.86, 243.11 145.86" stroke="#000000" stroke-width="1" fill="none"></path></g><g transform="translate(339.6653180041585 392.75833989088096) rotate(0 120.97389846775786 72.93161841231631)"><path d="M0 0 L6.23 13.64 L-6.45 13.54 L0 0" stroke="none" stroke-width="0" fill="#000000" fill-rule="evenodd"></path><path d="M0 0 C2.24 4.9, 4.47 9.8, 6.23 13.64 M0 0 C2.14 4.68, 4.27 9.36, 6.23 13.64 M6.23 13.64 C1.49 13.61, -3.25 13.57, -6.45 13.54 M6.23 13.64 C2.72 13.62, -0.78 13.59, -6.45 13.54 M-6.45 13.54 C-4.43 9.3, -2.41 5.07, 0 0 M-6.45 13.54 C-4.95 10.41, -3.46 7.27, 0 0 M0 0 C0 0, 0 0, 0 0 M0 0 C0 0, 0 0, 0 0" stroke="#000000" stroke-width="1" fill="none"></path></g></g><mask></mask><g stroke-linecap="round" transform="translate(632.5494188660605 739.472856871409) rotate(0 13.657627212636953 13.921142233034061)"><path d="M27.32 13.92 C27.32 14.73, 27.25 15.54, 27.11 16.34 C26.97 17.13, 26.76 17.93, 26.49 18.68 C26.22 19.44, 25.88 20.18, 25.49 20.88 C25.09 21.58, 24.63 22.25, 24.12 22.87 C23.61 23.49, 23.04 24.07, 22.44 24.59 C21.83 25.1, 21.17 25.57, 20.49 25.98 C19.8 26.38, 19.07 26.73, 18.33 27 C17.59 27.28, 16.81 27.49, 16.03 27.63 C15.25 27.77, 14.45 27.84, 13.66 27.84 C12.87 27.84, 12.06 27.77, 11.29 27.63 C10.51 27.49, 9.73 27.28, 8.99 27 C8.24 26.73, 7.51 26.38, 6.83 25.98 C6.14 25.57, 5.48 25.1, 4.88 24.59 C4.27 24.07, 3.7 23.49, 3.2 22.87 C2.69 22.25, 2.23 21.58, 1.83 20.88 C1.43 20.18, 1.09 19.44, 0.82 18.68 C0.55 17.93, 0.34 17.13, 0.21 16.34 C0.07 15.54, 0 14.73, 0 13.92 C0 13.12, 0.07 12.3, 0.21 11.5 C0.34 10.71, 0.55 9.92, 0.82 9.16 C1.09 8.4, 1.43 7.66, 1.83 6.96 C2.23 6.26, 2.69 5.59, 3.2 4.97 C3.7 4.36, 4.27 3.77, 4.88 3.26 C5.48 2.74, 6.14 2.27, 6.83 1.87 C7.51 1.46, 8.24 1.12, 8.99 0.84 C9.73 0.56, 10.51 0.35, 11.29 0.21 C12.06 0.07, 12.87 0, 13.66 0 C14.45 0, 15.25 0.07, 16.03 0.21 C16.81 0.35, 17.59 0.56, 18.33 0.84 C19.07 1.12, 19.8 1.46, 20.49 1.87 C21.17 2.27, 21.83 2.74, 22.44 3.26 C23.04 3.77, 23.61 4.36, 24.12 4.97 C24.63 5.59, 25.09 6.26, 25.49 6.96 C25.88 7.66, 26.22 8.4, 26.49 9.16 C26.76 9.92, 26.97 10.71, 27.11 11.5 C27.25 12.3, 27.28 13.52, 27.32 13.92 C27.35 14.32, 27.35 13.52, 27.32 13.92" stroke="#000000" stroke-width="1" fill="none"></path></g><g mask="url(#mask-8g96rcuKnB07BaW8L6uLy)" stroke-linecap="round"><g transform="translate(642.6787157339322 584.7414983864455) rotate(0 1.2454019880558462 72.52538977243557)"><path d="M0 0 C0.82 47.61, 1.63 95.21, 2.49 145.05 M0 0 C0.64 37.54, 1.29 75.07, 2.49 145.05" stroke="#000000" stroke-width="1" fill="none"></path></g><g transform="translate(642.6787157339322 584.7414983864455) rotate(0 1.2454019880558462 72.52538977243557)"><path d="M2.49 145.05 L-4.08 131.57 L8.6 131.35 L2.49 145.05" stroke="none" stroke-width="0" fill="#000000" fill-rule="evenodd"></path><path d="M2.49 145.05 C0.33 140.63, -1.82 136.2, -4.08 131.57 M2.49 145.05 C0.79 141.56, -0.91 138.07, -4.08 131.57 M-4.08 131.57 C0.74 131.48, 5.56 131.4, 8.6 131.35 M-4.08 131.57 C-0.55 131.51, 2.99 131.45, 8.6 131.35 M8.6 131.35 C7.3 134.25, 6.01 137.16, 2.49 145.05 M8.6 131.35 C6.33 136.43, 4.06 141.52, 2.49 145.05 M2.49 145.05 C2.49 145.05, 2.49 145.05, 2.49 145.05 M2.49 145.05 C2.49 145.05, 2.49 145.05, 2.49 145.05" stroke="#000000" stroke-width="1" fill="none"></path></g></g><mask id="mask-8g96rcuKnB07BaW8L6uLy"><rect x="0" y="0" fill="#fff" width="745.1695197100439" height="829.7922779313167"></rect><rect x="628.4241177219883" y="647.7668881588811" fill="#000" width="31" height="19" opacity="1"></rect></mask><g transform="translate(628.4241177219883 647.7668881588811) rotate(0 15.499999999999773 9.5)"><text x="15.5" y="14" font-family="Helvetica, Segoe UI Emoji" font-size="16px" fill="#000000" text-anchor="middle" style="white-space: pre;" direction="ltr">emit</text></g><g transform="translate(612.5800624038638 777.1211130559059) rotate(0 33.5 19)"><text x="33.5" y="15" font-family="Helvetica, Segoe UI Emoji" font-size="16px" fill="#000000" text-anchor="middle" style="white-space: pre;" direction="ltr">HTTP</text><text x="33.5" y="34" font-family="Helvetica, Segoe UI Emoji" font-size="16px" fill="#000000" text-anchor="middle" style="white-space: pre;" direction="ltr">end point</text></g><g mask="url(#mask-LSM_z8UehzB5CeQp0lX5d)" stroke-linecap="round"><g transform="translate(595.5 575.5292111861668) rotate(0 -250.35757333918104 -260.9506589588823)"><path d="M0.65 -0.71 C-116.42 -0.56, -233.36 -1.69, -499.93 -8.02 M0.32 -0.11 C-139.71 -3.28, -279.68 -5.1, -499.92 -8.17 M-500.7 -8.59 C-501.23 -185.54, -500.68 -361.12, -500.65 -516.44 M-499.65 -8.01 C-502.12 -209.99, -501.58 -411.46, -500.14 -516.27 M-500.37 -516.59 C-313.54 -521.37, -126.01 -522.35, -19.73 -521.53 M-500.08 -516.67 C-368.37 -516.51, -236.32 -517.76, -19.95 -521.77" stroke="#000000" stroke-width="1" fill="none"></path></g><g transform="translate(595.5 575.5292111861668) rotate(0 -250.35757333918104 -260.9506589588823)"><path d="M1.2 0.5 L-11.46 6.38 L-12.75 -7.33 L-1.34 -1.53" stroke="none" stroke-width="0" fill="#000000" fill-rule="evenodd"></path><path d="M1.86 -2.03 C-2.71 -0.04, -7.02 2.91, -12.87 6.08 M1.24 -0.92 C-2.6 0.28, -6.42 2.97, -12.86 5.81 M-14.11 5.09 C-13.24 -0.1, -12.33 -3.13, -13.91 -6.81 M-12.46 6.01 C-13.57 0.16, -12.67 -4.89, -13.11 -6.55 M-13.52 -7.05 C-7.92 -6.27, -1.13 -2.08, 1.11 -0.47 M-13.03 -7.19 C-9.69 -5.07, -5.73 -3.07, 0.73 -0.89 M0.65 -0.71 C0.65 -0.71, 0.65 -0.71, 0.65 -0.71 M0.65 -0.71 C0.65 -0.71, 0.65 -0.71, 0.65 -0.71" stroke="#000000" stroke-width="1" fill="none"></path></g><g transform="translate(595.5 575.5292111861668) rotate(0 -250.35757333918104 -260.9506589588823)"><path d="M-19.4 -520.56 L-31.89 -514.32 L-33.51 -528.04 L-21.94 -522.6" stroke="none" stroke-width="0" fill="#000000" fill-rule="evenodd"></path><path d="M-18.74 -523.1 C-23.27 -521.02, -27.54 -517.99, -33.3 -514.62 M-19.36 -521.98 C-23.14 -520.68, -26.92 -517.89, -33.29 -514.89 M-34.54 -515.61 C-33.78 -520.81, -32.99 -523.84, -34.68 -527.52 M-32.89 -514.69 C-34.13 -520.55, -33.36 -525.59, -33.87 -527.26 M-34.29 -527.76 C-28.63 -527.11, -21.77 -523.07, -19.49 -521.53 M-33.79 -527.89 C-30.41 -525.87, -26.41 -523.97, -19.87 -521.95 M-19.95 -521.77 C-19.95 -521.77, -19.95 -521.77, -19.95 -521.77 M-19.95 -521.77 C-19.95 -521.77, -19.95 -521.77, -19.95 -521.77" stroke="#000000" stroke-width="1" fill="none"></path></g></g><mask id="mask-LSM_z8UehzB5CeQp0lX5d"><rect x="0" y="0" fill="#fff" width="1195.5" height="1197.1958778528337"></rect><rect x="10" y="301.0292111861663" fill="#000" width="171" height="24" opacity="1"></rect></mask><g transform="translate(10 301.0292111861663) rotate(0 335.14242666081896 13.549341041118169)"><text x="85.5" y="19" font-family="Helvetica, Segoe UI Emoji" font-size="20px" fill="#000000" text-anchor="middle" style="white-space: pre;" direction="ltr">échange back/front</text></g></svg>